<svg width="512" height="512" viewBox="0 0 512 512" fill="none" xmlns="http://www.w3.org/2000/svg">
  <circle cx="256" cy="256" r="256" fill="#2E8B57"/>
  <circle cx="256" cy="256" r="230" fill="#3E9B5A"/>
  <path d="M170 220C183.807 220 195 231.193 195 245C195 258.807 183.807 270 170 270C156.193 270 145 258.807 145 245C145 231.193 156.193 220 170 220Z" fill="white"/>
  <path d="M342 220C355.807 220 367 231.193 367 245C367 258.807 355.807 270 342 270C328.193 270 317 258.807 317 245C317 231.193 328.193 220 342 220Z" fill="white"/>
  <path d="M180 240H160C155.582 240 152 243.582 152 248C152 252.418 155.582 256 160 256H180C184.418 256 188 252.418 188 248C188 243.582 184.418 240 180 240Z" fill="#4CA365"/>
  <path d="M352 240H332C327.582 240 324 243.582 324 248C324 252.418 327.582 256 332 256H352C356.418 256 360 252.418 360 248C360 243.582 356.418 240 352 240Z" fill="#4CA365"/>
  <path d="M256 330C297.974 330 332 316.569 332 300C332 283.431 297.974 270 256 270C214.026 270 180 283.431 180 300C180 316.569 214.026 330 256 330Z" fill="white"/>
  <path d="M256 310C276.987 310 294 305.075 294 299C294 292.925 276.987 288 256 288C235.013 288 218 292.925 218 299C218 305.075 235.013 310 256 310Z" fill="#4CA365"/>
</svg> 