<svg id="svg" xmlns="http://www.w3.org/2000/svg" xmlns:xlink="http://www.w3.org/1999/xlink" width="400" height="400" viewBox="0, 0, 400,400" version="1.1">
  <g id="svgg">
    <path id="path0" d="M191.006 37.891 C 167.548 39.197,145.963 45.945,127.869 57.627 L 124.074 60.078 121.038 57.323 C 105.581 43.298,88.520 40.624,72.852 49.771 C 56.227 59.476,47.104 87.913,54.378 107.354 C 58.184 117.525,70.727 115.748,81.055 103.575 C 83.135 101.123,83.438 100.898,83.748 101.572 C 84.117 102.373,83.902 103.023,80.880 110.227 C 62.169 154.843,82.316 208.144,127.882 234.574 C 129.481 235.502,129.688 235.747,129.172 236.102 C 128.833 236.334,126.684 237.666,124.395 239.063 C 94.126 257.535,72.655 290.717,67.903 326.367 C 66.960 333.445,67.182 352.946,68.229 354.900 C 71.227 360.500,73.363 361.133,89.258 361.133 C 106.055 361.133,102.776 362.775,119.278 346.101 L 132.330 332.912 145.560 346.156 C 166.535 367.154,164.940 367.143,185.752 346.439 L 199.433 332.827 212.485 345.884 C 227.552 360.955,227.788 361.133,232.813 361.133 C 237.927 361.133,237.858 361.184,252.887 346.143 L 266.125 332.894 279.059 345.931 C 290.325 357.288,292.294 359.108,294.336 360.051 L 296.680 361.133 310.352 361.133 L 324.023 361.133 326.030 360.074 C 331.471 357.205,332.191 354.855,331.923 340.851 C 331.090 297.421,308.279 258.257,271.836 237.690 L 268.476 235.794 272.617 233.313 C 318.459 205.849,337.299 152.963,317.524 107.257 C 316.120 104.013,315.684 102.024,316.253 101.455 C 316.383 101.325,317.434 102.306,318.588 103.636 C 327.619 114.048,338.644 117.146,343.590 110.661 C 348.463 104.272,349.024 85.737,344.723 73.242 C 334.264 42.862,301.894 35.040,278.849 57.325 L 275.862 60.213 273.966 58.872 C 253.495 44.389,221.161 36.212,191.006 37.891 M217.773 88.996 C 258.328 95.326,281.817 117.326,282.696 149.805 C 283.871 193.248,243.140 222.358,188.380 217.209 C 142.333 212.880,112.656 183.566,116.385 146.094 C 119.616 113.622,145.802 92.454,188.086 88.134 C 192.821 87.650,212.884 88.233,217.773 88.996 M147.070 134.243 C 136.650 139.737,146.995 153.843,162.907 155.838 C 177.338 157.648,193.311 146.307,188.905 137.380 C 186.614 132.739,181.561 132.342,176.509 136.406 C 169.536 142.016,162.933 142.252,156.819 137.109 C 152.769 133.702,149.770 132.820,147.070 134.243 M214.909 134.410 C 203.565 140.174,217.885 155.903,234.465 155.888 C 248.570 155.876,261.255 145.086,256.567 137.087 C 253.942 132.607,249.315 132.426,244.295 136.607 C 237.351 142.389,231.209 142.094,222.861 135.577 C 220.075 133.402,217.606 133.039,214.909 134.410 M244.154 168.625 C 230.443 175.206,216.847 176.644,202.531 173.028 C 195.435 171.236,192.998 171.524,190.792 174.416 C 181.588 186.483,223.094 200.664,242.125 191.955 C 255.563 185.806,261.700 169.606,251.648 166.814 C 249.436 166.200,248.973 166.312,244.154 168.625 " stroke="none" fill="#4ca364" fill-rule="evenodd"/>
    <path id="path1" d="M0.000 200.000 L 0.000 400.000 200.000 400.000 L 400.000 400.000 400.000 200.000 L 400.000 0.000 200.000 0.000 L 0.000 0.000 0.000 200.000 M213.672 38.314 C 235.602 40.350,259.121 48.369,273.966 58.872 L 275.862 60.213 278.849 57.325 C 301.894 35.040,334.264 42.862,344.723 73.242 C 349.024 85.737,348.463 104.272,343.590 110.661 C 338.644 117.146,327.619 114.048,318.588 103.636 C 317.434 102.306,316.383 101.325,316.253 101.455 C 315.684 102.024,316.120 104.013,317.524 107.257 C 337.299 152.963,318.459 205.849,272.617 233.313 L 268.476 235.794 271.836 237.690 C 308.279 258.257,331.090 297.421,331.923 340.851 C 332.191 354.855,331.471 357.205,326.030 360.074 L 324.023 361.133 310.352 361.133 L 296.680 361.133 294.336 360.051 C 292.294 359.108,290.325 357.288,279.059 345.931 L 266.125 332.894 252.887 346.143 C 237.858 361.184,237.927 361.133,232.813 361.133 C 227.788 361.133,227.552 360.955,212.485 345.884 L 199.433 332.827 185.752 346.439 C 164.940 367.143,166.535 367.154,145.560 346.156 L 132.330 332.912 119.278 346.101 C 102.776 362.775,106.055 361.133,89.258 361.133 C 73.363 361.133,71.227 360.500,68.229 354.900 C 67.182 352.946,66.960 333.445,67.903 326.367 C 72.655 290.717,94.126 257.535,124.395 239.063 C 126.684 237.666,128.833 236.334,129.172 236.102 C 129.688 235.747,129.481 235.502,127.882 234.574 C 103.894 220.660,85.287 197.888,78.128 173.682 C 72.071 153.203,73.134 128.698,80.880 110.227 C 83.902 103.023,84.117 102.373,83.748 101.572 C 83.438 100.898,83.135 101.123,81.055 103.575 C 70.727 115.748,58.184 117.525,54.378 107.354 C 47.104 87.913,56.227 59.476,72.852 49.771 C 88.520 40.624,105.581 43.298,121.038 57.323 L 124.074 60.078 127.869 57.627 C 151.732 42.220,182.105 35.383,213.672 38.314 M188.086 88.134 C 145.802 92.454,119.616 113.622,116.385 146.094 C 112.656 183.566,142.333 212.880,188.380 217.209 C 236.918 221.773,275.802 198.885,282.074 162.059 C 287.911 127.786,265.687 99.091,226.758 90.637 C 216.757 88.465,197.222 87.201,188.086 88.134 M152.930 134.381 C 153.789 134.805,155.539 136.032,156.819 137.109 C 162.933 142.252,169.536 142.016,176.509 136.406 C 181.561 132.342,186.614 132.739,188.905 137.380 C 193.311 146.307,177.338 157.648,162.907 155.838 C 150.512 154.284,139.955 144.429,143.462 137.685 C 145.313 134.126,149.470 132.675,152.930 134.381 M222.861 135.577 C 231.209 142.094,237.351 142.389,244.295 136.607 C 249.315 132.426,253.942 132.607,256.567 137.087 C 262.310 146.887,243.169 158.984,227.824 155.253 C 218.865 153.074,210.511 145.596,211.027 140.218 C 211.610 134.159,217.890 131.696,222.861 135.577 M251.648 166.814 C 263.790 170.186,252.906 189.904,236.699 193.898 C 219.439 198.152,188.444 187.352,189.557 177.473 C 190.148 172.228,194.058 170.889,202.531 173.028 C 216.847 176.644,230.443 175.206,244.154 168.625 C 248.973 166.312,249.436 166.200,251.648 166.814 " stroke="none" fill="#f9f9f9" fill-rule="evenodd"/>
  </g>
</svg>
